<svg width="512" height="512" viewBox="0 0 512 512" fill="none" xmlns="http://www.w3.org/2000/svg" role="img" aria-labelledby="title desc">
  <title id="title">KtorScope logo</title>
  <desc id="desc">A rounded square logo with a network scope ring and K-shaped request path.</desc>
  <defs>
    <linearGradient id="bg" x1="76" y1="52" x2="436" y2="460" gradientUnits="userSpaceOnUse">
      <stop stop-color="#0B1020"/>
      <stop offset="0.55" stop-color="#102A56"/>
      <stop offset="1" stop-color="#111827"/>
    </linearGradient>
    <linearGradient id="path" x1="154" y1="151" x2="360" y2="361" gradientUnits="userSpaceOnUse">
      <stop stop-color="#5EEAD4"/>
      <stop offset="0.5" stop-color="#60A5FA"/>
      <stop offset="1" stop-color="#A78BFA"/>
    </linearGradient>
    <filter id="softShadow" x="38" y="44" width="436" height="436" filterUnits="userSpaceOnUse" color-interpolation-filters="sRGB">
      <feDropShadow dx="0" dy="18" stdDeviation="22" flood-color="#020617" flood-opacity="0.28"/>
    </filter>
  </defs>

  <rect x="58" y="58" width="396" height="396" rx="92" fill="url(#bg)" filter="url(#softShadow)"/>
  <rect x="76" y="76" width="360" height="360" rx="76" stroke="#F8FAFC" stroke-opacity="0.10" stroke-width="4"/>

  <circle cx="256" cy="256" r="132" stroke="#E2E8F0" stroke-opacity="0.18" stroke-width="18"/>
  <path d="M151 256C151 198 198 151 256 151C314 151 361 198 361 256C361 314 314 361 256 361C198 361 151 314 151 256Z" stroke="url(#path)" stroke-width="22" stroke-linecap="round" stroke-dasharray="204 72"/>

  <path d="M181 176V336" stroke="#F8FAFC" stroke-width="30" stroke-linecap="round"/>
  <path d="M321 176L204 256L321 336" stroke="url(#path)" stroke-width="34" stroke-linecap="round" stroke-linejoin="round"/>

  <circle cx="181" cy="176" r="22" fill="#14B8A6"/>
  <circle cx="321" cy="176" r="22" fill="#60A5FA"/>
  <circle cx="321" cy="336" r="22" fill="#A78BFA"/>
  <circle cx="204" cy="256" r="17" fill="#F8FAFC"/>

  <path d="M118 138H159" stroke="#5EEAD4" stroke-width="14" stroke-linecap="round"/>
  <path d="M353 374H394" stroke="#A78BFA" stroke-width="14" stroke-linecap="round"/>
  <path d="M374 118V159" stroke="#60A5FA" stroke-width="14" stroke-linecap="round"/>
</svg>
